<svg xmlns="http://www.w3.org/2000/svg" viewBox="0 0 256 256" role="img" aria-labelledby="title desc">
  <title id="title">Open Kimi PPT</title>
  <desc id="desc">A purple presentation tile with the letter N and layered slides.</desc>
  <defs>
    <linearGradient id="bg" x1="28" y1="20" x2="224" y2="236" gradientUnits="userSpaceOnUse">
      <stop stop-color="#7C6CF2"/>
      <stop offset="1" stop-color="#5141C9"/>
    </linearGradient>
  </defs>
  <rect x="20" y="20" width="216" height="216" rx="54" fill="url(#bg)"/>
  <path d="M72 83h112a18 18 0 0 1 18 18v72a18 18 0 0 1-18 18H72a18 18 0 0 1-18-18v-72a18 18 0 0 1 18-18Z" fill="#FFF" opacity=".18"/>
  <path d="M79 69h98a16 16 0 0 1 16 16v66a16 16 0 0 1-16 16H79a16 16 0 0 1-16-16V85a16 16 0 0 1 16-16Z" fill="#FFF"/>
  <path d="M91 143V93h14l28 31V93h16v50h-14l-28-31v31H91Z" fill="#5A49D6"/>
  <circle cx="170" cy="142" r="7" fill="#7C6CF2"/>
</svg>
